<?xml version="1.0" ?><svg viewBox="0 0 32 32" xmlns="http://www.w3.org/2000/svg"><title/><g data-name="Layer 2" id="Layer_2"><path d="M16,31l-.57,0A6.16,6.16,0,0,1,10,24.79V21.21a11,11,0,1,1,12,0V25a6,6,0,0,1-6,6ZM16,3a9.4,9.4,0,0,0-1,.06,9,9,0,0,0-3.84,16.5A1.88,1.88,0,0,1,12,21.13v3.65A4.15,4.15,0,0,0,15.6,29,4,4,0,0,0,20,25V21.13a1.87,1.87,0,0,1,.87-1.57A9,9,0,0,0,16,3Z"/><rect height="2" width="10" x="11" y="22.25"/><rect height="2" rx="1" ry="1" width="8" x="12" y="15"/><rect height="8" width="2" x="15" y="15.25"/></g></svg>